<svg width="75" height="57" viewBox="0 0 75 57" fill="none" xmlns="http://www.w3.org/2000/svg">
<path d="M32.8125 56.25C32.8125 56.25 28.125 56.25 28.125 51.5625C28.125 46.875 32.8125 32.8125 51.5625 32.8125C70.3125 32.8125 75 46.875 75 51.5625C75 56.25 70.3125 56.25 70.3125 56.25H32.8125ZM51.5625 28.125C55.2921 28.125 58.869 26.6434 61.5062 24.0062C64.1434 21.369 65.625 17.7921 65.625 14.0625C65.625 10.3329 64.1434 6.75604 61.5062 4.11881C58.869 1.48158 55.2921 0 51.5625 0C47.8329 0 44.256 1.48158 41.6188 4.11881C38.9816 6.75604 37.5 10.3329 37.5 14.0625C37.5 17.7921 38.9816 21.369 41.6188 24.0062C44.256 26.6434 47.8329 28.125 51.5625 28.125Z" fill="#EBEBEB"/>
<path fill-rule="evenodd" clip-rule="evenodd" d="M24.45 56.2499C23.7551 54.7866 23.4085 53.1821 23.4375 51.5624C23.4375 45.2109 26.625 38.6718 32.5125 34.1249C29.5739 33.2195 26.5123 32.7767 23.4375 32.8124C4.6875 32.8124 0 46.8749 0 51.5624C0 56.2499 4.6875 56.2499 4.6875 56.2499H24.45Z" fill="#EBEBEB"/>
<path d="M21.0937 28.1251C24.2017 28.1251 27.1824 26.8905 29.3801 24.6928C31.5778 22.4951 32.8125 19.5144 32.8125 16.4064C32.8125 13.2984 31.5778 10.3177 29.3801 8.11996C27.1824 5.92227 24.2017 4.68762 21.0937 4.68762C17.9857 4.68762 15.005 5.92227 12.8073 8.11996C10.6096 10.3177 9.37497 13.2984 9.37497 16.4064C9.37497 19.5144 10.6096 22.4951 12.8073 24.6928C15.005 26.8905 17.9857 28.1251 21.0937 28.1251Z" fill="#EBEBEB"/>
</svg>
