<svg width="115" height="115" viewBox="0 0 115 115" fill="none" xmlns="http://www.w3.org/2000/svg">
<g filter="url(#filter0_d)">
<path d="M28.5531 70.7207C29.0397 71.244 29.4125 71.876 29.645 72.5714C29.8776 73.2669 29.9641 74.0087 29.8984 74.7441C29.569 78.1476 28.9444 81.5108 28.0328 84.7901C34.5719 83.1677 38.5656 81.2891 40.3797 80.3046C41.4086 79.7462 42.5935 79.6138 43.7078 79.9329C46.902 80.8454 50.1942 81.3047 53.5 81.2991C72.2313 81.2991 86.3125 67.1996 86.3125 51.1611C86.3125 35.1276 72.2313 21.023 53.5 21.023C34.7687 21.023 20.6875 35.1276 20.6875 51.1611C20.6875 58.5349 23.5797 65.3762 28.5531 70.7207ZM26.2422 90.3355C25.1316 90.5715 24.0174 90.7875 22.9 90.9835C21.9625 91.1442 21.25 90.0995 21.6203 89.1652C22.0365 88.1134 22.418 87.0461 22.7641 85.9655L22.7781 85.9153C23.9406 82.2987 24.8875 78.1397 25.2344 74.2669C19.4828 68.0886 16 60.0016 16 51.1611C16 31.7421 32.7906 16 53.5 16C74.2094 16 91 31.7421 91 51.1611C91 70.58 74.2094 86.3222 53.5 86.3222C49.7859 86.3275 46.0871 85.8108 42.4984 84.7851C40.0609 86.1062 34.8156 88.5122 26.2422 90.3355Z" fill="#EBEBEB"/>
<path d="M35.0142 38.9166C35.0142 38.2636 35.2576 37.6373 35.691 37.1756C36.1243 36.7138 36.7121 36.4544 37.3249 36.4544H69.6753C70.2881 36.4544 70.8758 36.7138 71.3092 37.1756C71.7425 37.6373 71.986 38.2636 71.986 38.9166C71.986 39.5696 71.7425 40.1958 71.3092 40.6575C70.8758 41.1193 70.2881 41.3787 69.6753 41.3787H37.3249C36.7121 41.3787 36.1243 41.1193 35.691 40.6575C35.2576 40.1958 35.0142 39.5696 35.0142 38.9166ZM35.0142 51.2272C35.0142 50.5742 35.2576 49.9479 35.691 49.4862C36.1243 49.0244 36.7121 48.765 37.3249 48.765H69.6753C70.2881 48.765 70.8758 49.0244 71.3092 49.4862C71.7425 49.9479 71.986 50.5742 71.986 51.2272C71.986 51.8802 71.7425 52.5064 71.3092 52.9681C70.8758 53.4299 70.2881 53.6893 69.6753 53.6893H37.3249C36.7121 53.6893 36.1243 53.4299 35.691 52.9681C35.2576 52.5064 35.0142 51.8802 35.0142 51.2272ZM35.0142 63.5378C35.0142 62.8848 35.2576 62.2585 35.691 61.7968C36.1243 61.335 36.7121 61.0756 37.3249 61.0756H55.8108C56.4237 61.0756 57.0114 61.335 57.4448 61.7968C57.8781 62.2585 58.1216 62.8848 58.1216 63.5378C58.1216 64.1908 57.8781 64.817 57.4448 65.2788C57.0114 65.7405 56.4237 65.9999 55.8108 65.9999H37.3249C36.7121 65.9999 36.1243 65.7405 35.691 65.2788C35.2576 64.817 35.0142 64.1908 35.0142 63.5378Z" fill="#EBEBEB"/>
</g>
<defs>
<filter id="filter0_d" x="0" y="0" width="115" height="115" filterUnits="userSpaceOnUse" color-interpolation-filters="sRGB">
<feFlood flood-opacity="0" result="BackgroundImageFix"/>
<feColorMatrix in="SourceAlpha" type="matrix" values="0 0 0 0 0 0 0 0 0 0 0 0 0 0 0 0 0 0 127 0"/>
<feOffset dx="4" dy="4"/>
<feGaussianBlur stdDeviation="10"/>
<feColorMatrix type="matrix" values="0 0 0 0 0 0 0 0 0 0 0 0 0 0 0 0 0 0 0.25 0"/>
<feBlend mode="normal" in2="BackgroundImageFix" result="effect1_dropShadow"/>
<feBlend mode="normal" in="SourceGraphic" in2="effect1_dropShadow" result="shape"/>
</filter>
</defs>
</svg>
