<svg width="95" height="116" viewBox="0 0 95 116" fill="none" xmlns="http://www.w3.org/2000/svg">
<g filter="url(#filter0_d)">
<path fill-rule="evenodd" clip-rule="evenodd" d="M29.6364 30.1364C29.6364 26.5198 31.073 23.0513 33.6304 20.494C36.1877 17.9367 39.6561 16.5 43.2727 16.5C46.8893 16.5 50.3578 17.9367 52.9151 20.494C55.4724 23.0513 56.9091 26.5198 56.9091 30.1364V50.5909C56.9091 54.2075 55.4724 57.676 52.9151 60.2333C50.3578 62.7906 46.8893 64.2273 43.2727 64.2273C39.6561 64.2273 36.1877 62.7906 33.6304 60.2333C31.073 57.676 29.6364 54.2075 29.6364 50.5909V30.1364ZM22.8182 47.1818C22.8182 46.2777 22.459 45.4106 21.8197 44.7712C21.1804 44.1319 20.3132 43.7727 19.4091 43.7727C18.5049 43.7727 17.6378 44.1319 16.9985 44.7712C16.3592 45.4106 16 46.2777 16 47.1818V50.5909C16.0001 57.2339 18.4245 63.6485 22.8182 68.631C27.2119 73.6134 33.2728 76.8212 39.8636 77.6523V88.0909C39.8636 88.9951 40.2228 89.8622 40.8621 90.5015C41.5015 91.1408 42.3686 91.5 43.2727 91.5C44.1769 91.5 45.044 91.1408 45.6833 90.5015C46.3226 89.8622 46.6818 88.9951 46.6818 88.0909V77.6523C53.2726 76.8212 59.3336 73.6134 63.7273 68.631C68.121 63.6485 70.5453 57.2339 70.5455 50.5909V47.1818C70.5455 46.2777 70.1863 45.4106 69.547 44.7712C68.9076 44.1319 68.0405 43.7727 67.1364 43.7727C66.2322 43.7727 65.3651 44.1319 64.7258 44.7712C64.0864 45.4106 63.7273 46.2777 63.7273 47.1818V50.5909C63.7273 56.0158 61.5723 61.2185 57.7363 65.0545C53.9003 68.8904 48.6976 71.0455 43.2727 71.0455C37.8478 71.0455 32.6452 68.8904 28.8092 65.0545C24.9732 61.2185 22.8182 56.0158 22.8182 50.5909V47.1818Z" fill="white"/>
</g>
<defs>
<filter id="filter0_d" x="0" y="0.5" width="94.5455" height="115" filterUnits="userSpaceOnUse" color-interpolation-filters="sRGB">
<feFlood flood-opacity="0" result="BackgroundImageFix"/>
<feColorMatrix in="SourceAlpha" type="matrix" values="0 0 0 0 0 0 0 0 0 0 0 0 0 0 0 0 0 0 127 0"/>
<feOffset dx="4" dy="4"/>
<feGaussianBlur stdDeviation="10"/>
<feColorMatrix type="matrix" values="0 0 0 0 0 0 0 0 0 0 0 0 0 0 0 0 0 0 0.5 0"/>
<feBlend mode="normal" in2="BackgroundImageFix" result="effect1_dropShadow"/>
<feBlend mode="normal" in="SourceGraphic" in2="effect1_dropShadow" result="shape"/>
</filter>
</defs>
</svg>
